<svg xmlns="http://www.w3.org/2000/svg" width="534.826" height="222.342" viewBox="0 0 534.826 222.342"><defs><style>.a{fill:#2b2d42;opacity:0.101;}</style></defs><path class="a" d="M200.988,50.093C184.1,38.485,160.26,32.358,131.9,32.358S79.7,38.485,62.813,50.093C21.736,61.172-.855,81.893.768,107.084c.5,7.718.831,16.231.98,25.31.214,12.789,7.361,23.359,17.785,26.3,9.061,2.547,18.153-1.319,23.745-10.1l.294-.461q1.9,3.821,4.152,7.467-.024.556-.024,1.112C47.7,207.6,85.473,249,131.9,249s84.2-41.4,84.2-92.286q0-.564-.024-1.112,2.248-3.646,4.146-7.467l.294.455c5.6,8.791,14.7,12.688,23.753,10.1,10.422-2.944,17.563-13.514,17.775-26.292.159-9.188.487-17.7.985-25.318C264.659,81.893,242.069,61.172,200.988,50.093Zm44.793,82.031c-.1,6.376-3.146,10.13-5.931,10.914-2.513.741-4.435-1.345-5.611-3.193l-18.627-29.2-4.965,17.367a75.927,75.927,0,0,1-9.617,20.928l-1.417,2.155.159,4.152c.029.482.064.969.064,1.462,0,41.914-30.476,76.018-67.934,76.018s-67.934-34.1-67.934-76.018c0-.508.034-1.006.064-1.5l.164-4.1-1.425-2.166a75.757,75.757,0,0,1-9.625-20.925l-4.97-17.369L29.56,139.851c-1.176,1.848-3.1,3.919-5.608,3.188-2.785-.784-5.83-4.538-5.936-10.914-.154-9.336-.5-18.116-1.011-26.091-1.554-24.1,35.4-36.407,51.356-40.58l1.462-.381,1.229-.882c14.168-10.183,35.21-15.564,60.851-15.564s46.683,5.38,60.849,15.564l1.229.882,1.462.381C211.4,69.626,248.354,81.936,246.8,106.03,246.286,113.9,245.945,122.674,245.781,132.124ZM98.012,134.387a11.033,11.033,0,1,1,11.033-11.033A11.033,11.033,0,0,1,98.012,134.387Zm78.813-11.033a11.033,11.033,0,1,1-11.033-11.033A11.033,11.033,0,0,1,176.824,123.354Zm-14.1,82.829a6.509,6.509,0,0,1-1.552,9.071c-5.669,4.014-10.964,6.026-15.828,6.026a16.572,16.572,0,0,1-6.99-1.525,18.049,18.049,0,0,1-6.451-5.138,18.052,18.052,0,0,1-6.451,5.138,16.572,16.572,0,0,1-6.99,1.525c-4.864,0-10.16-2.012-15.828-6.026a6.508,6.508,0,0,1,7.52-10.623c4.266,3.018,7.869,4.215,9.866,3.3a7.8,7.8,0,0,0,3.194-3.673c-9.5-2.159-16.3-7.694-16.3-14.239,0-8.418,11.189-15.241,24.991-15.241s24.991,6.824,24.991,15.241c0,6.546-6.8,12.081-16.3,14.239a7.818,7.818,0,0,0,3.2,3.678c2,.921,5.6-.3,9.855-3.3A6.52,6.52,0,0,1,162.722,206.183Zm367.367-20.552a5.423,5.423,0,0,0,0-10.845H514.08a74.658,74.658,0,0,0,1.531-14.377c0-1.029-.1-2.045-.14-3.068l12.728-3.371a5.423,5.423,0,1,0-2.775-10.485l-11.12,2.946a78.4,78.4,0,0,0-8.806-23.875l7.212-79.146a12.586,12.586,0,0,0-6.026-11.886,13.676,13.676,0,0,0-13.9-.246L443.059,53.231a108.518,108.518,0,0,0-79.9,0L313.432,31.275a13.661,13.661,0,0,0-13.9.252,12.573,12.573,0,0,0-6.016,11.886l7.211,79.138a78.384,78.384,0,0,0-8.807,23.879L280.8,143.483a5.423,5.423,0,1,0-2.775,10.485l12.733,3.373c-.041,1.023-.14,2.038-.14,3.066a74.658,74.658,0,0,0,1.531,14.377h-16.01a5.423,5.423,0,0,0,0,10.845h18.93a81.108,81.108,0,0,0,6.755,14.3L277.2,206.448a5.423,5.423,0,0,0,1.382,10.665,5.5,5.5,0,0,0,1.393-.18l28.333-7.5c20,25.453,54.973,42.413,94.8,42.413s74.808-16.96,94.8-42.412l28.329,7.5a5.5,5.5,0,0,0,1.393.18,5.423,5.423,0,0,0,1.382-10.665L504.4,199.927a81.085,81.085,0,0,0,6.756-14.3Zm-73.99,0h37.551a67.641,67.641,0,0,1-5.566,9.974l-29.776-7.887a5.423,5.423,0,1,0-2.775,10.485l25.028,6.63c-17.535,18.6-45.676,30.741-77.449,30.741s-59.915-12.142-77.45-30.742l25.029-6.629a5.423,5.423,0,1,0-2.775-10.485L318.14,195.6a67.6,67.6,0,0,1-5.566-9.973h37.546a5.423,5.423,0,0,0,0-10.845H308.692a59.394,59.394,0,0,1-1.732-13.151L348.732,172.7a5.494,5.494,0,0,0,1.393.18,5.423,5.423,0,0,0,1.382-10.665l-43.757-11.59c.078-.464.113-.934.2-1.4a61.563,61.563,0,0,1,4.7-14.274,70.709,70.709,0,0,1,11.167-17.026l1.329-1.509.477-1.954c.053-.219.137-.428.193-.647,4.7-18.427,18.634-33.719,37.274-42.833a86.975,86.975,0,0,1,10.476-4.267,90.913,90.913,0,0,1,12.733-3.27,90.917,90.917,0,0,1,33.625,0,90.873,90.873,0,0,1,12.734,3.271,87.007,87.007,0,0,1,10.475,4.267c18.641,9.114,32.575,24.408,37.279,42.837.056.217.139.425.192.643l.477,1.954,1.329,1.507a70.794,70.794,0,0,1,11.166,17.031,61.586,61.586,0,0,1,4.7,14.272c.089.462.125.932.2,1.4l-43.761,11.592a5.423,5.423,0,0,0,1.382,10.665,5.494,5.494,0,0,0,1.393-.18l41.777-11.066a59.409,59.409,0,0,1-1.732,13.153H456.1a5.423,5.423,0,1,0,0,10.845ZM344.73,62.878c-13.157,8.762-23.62,20.433-30,34l-4.488-49.233ZM495.986,47.647,491.5,96.886c-6.385-13.573-16.85-25.246-30.008-34.008ZM374.463,133.491c-4.369-2.875-19.128-.021-28.1,3.146a6.507,6.507,0,1,1-4.332-12.272c4.586-1.62,28.061-9.31,39.579-1.75a6.508,6.508,0,1,1-7.149,10.877Zm85.4,3.151c-8.981-3.161-23.745-6.016-28.109-3.151a6.505,6.505,0,0,1-7.138-10.877c11.513-7.573,34.988.132,39.574,1.753a6.508,6.508,0,0,1-4.327,12.275Zm-31.805,45.786a6.485,6.485,0,0,1-.582,9.119c-.7.62-6.212,5.28-13.218,5.28a15.339,15.339,0,0,1-3.982-.524,15.763,15.763,0,0,1-7.16-4.273,15.776,15.776,0,0,1-7.164,4.273,15.3,15.3,0,0,1-3.977.524c-7.011,0-12.513-4.66-13.218-5.285a6.507,6.507,0,0,1,8.584-9.781c.959.81,3.585,2.457,5.259,1.965,1.328-.365,2.772-2.4,3.956-5.474v-9.163a10.733,10.733,0,0,1-2.39-2.445l-.647-.945a10.845,10.845,0,0,1,8.95-16.97h1.294a10.845,10.845,0,0,1,8.95,16.97l-.647.945a10.726,10.726,0,0,1-2.388,2.443v9.165c1.184,3.074,2.622,5.1,3.95,5.474,1.636.455,4.316-1.16,5.274-1.97A6.544,6.544,0,0,1,428.054,182.427Z" transform="translate(-0.686 -29.499)"/></svg>