<svg id="Layer_1" data-name="Layer 1" xmlns="http://www.w3.org/2000/svg" viewBox="0 0 32 32"><defs><style>.cls-1{fill:#fff;}</style></defs><title>instagram_white</title><rect class="cls-1" x="19.03" y="9.95" width="3.03" height="3.03" rx="0.51" ry="0.51"/><ellipse class="cls-1" cx="16.01" cy="15.97" rx="3.24" ry="3.14"/><path class="cls-1" d="M22.06,14.49l-1.23.27A4.7,4.7,0,0,1,21,16.15a5,5,0,0,1-10,0,4.7,4.7,0,0,1,.21-1.39l-1.26-.27v7.07a0.43,0.43,0,0,0,.51.51h11.1a0.43,0.43,0,0,0,.51-0.51h0V14.49Z"/><path class="cls-1" d="M16,0A16,16,0,1,0,32,16,16,16,0,0,0,16,0Zm8.08,22.06a2,2,0,0,1-2,2H9.94a2,2,0,0,1-2-2V9.95a2,2,0,0,1,2-2H22.06a2,2,0,0,1,2,2V22.06Z"/></svg>