<svg id="Layer_1" data-name="Layer 1" xmlns="http://www.w3.org/2000/svg" viewBox="0 0 32 32"><defs><style>.cls-1{fill:#fff;}</style></defs><title>twitter_white</title><path class="cls-1" d="M16,0A16,16,0,1,0,32,16,16,16,0,0,0,16,0Zm8.74,10.67a8.55,8.55,0,0,1-.89,1c-0.71.71-.75,0.78-0.75,1.38a13.26,13.26,0,0,1-.86,3.86,11.18,11.18,0,0,1-4.24,5,10.74,10.74,0,0,1-8.35,1A9.75,9.75,0,0,1,7.2,21.71a3.75,3.75,0,0,1,1-.1,7.12,7.12,0,0,0,3.41-1l0.69-.41L11.55,20a3.85,3.85,0,0,1-2.38-2.11c-0.08-.27-0.05-0.28.66-0.28h0.74l-0.62-.3A4.11,4.11,0,0,1,8.2,15.63a4.62,4.62,0,0,1-.46-1.72,1.48,1.48,0,0,1,.6.14c0.88,0.32,1,.24.48-0.3A3.72,3.72,0,0,1,8,9.94l0.21-.62,0.84,0.84a10.35,10.35,0,0,0,6.06,3l0.64,0.08,0-.63a3.68,3.68,0,0,1,2.48-3.7,4.34,4.34,0,0,1,2.23-.05,5.19,5.19,0,0,1,1.08.57l0.62,0.43,0.69-.22A7,7,0,0,0,24,9.17,0.69,0.69,0,0,1,24.37,9a3.76,3.76,0,0,1-.86,1.38C23,11,23.13,11,24.21,10.65,24.85,10.43,24.87,10.43,24.74,10.67Z"/></svg>