<svg id="Layer_1" data-name="Layer 1" xmlns="http://www.w3.org/2000/svg" viewBox="0 0 32 32"><defs><style>.cls-1{fill:#fff;}</style></defs><title>youtube_white</title><path class="cls-1" d="M18.27,15.67L15.13,13.4a0.42,0.42,0,0,0-.4,0,0.37,0.37,0,0,0-.2.33v4.53a0.37,0.37,0,0,0,.2.33,0.33,0.33,0,0,0,.4,0l3.13-2.27A0.24,0.24,0,0,0,18.4,16,0.51,0.51,0,0,0,18.27,15.67Z"/><path class="cls-1" d="M16,0A16,16,0,1,0,32,16,16,16,0,0,0,16,0Zm7.47,19.67a0.24,0.24,0,0,0-.07.2v0.07a1.44,1.44,0,0,1-1.4,1h0.13a45.94,45.94,0,0,1-6.13.4,44.69,44.69,0,0,1-6.13-.4H10a1.44,1.44,0,0,1-1.4-1V19.87a0.24,0.24,0,0,1-.07-0.2A32.41,32.41,0,0,1,8.27,16a32.41,32.41,0,0,1,.27-3.67,0.24,0.24,0,0,0,.07-0.2V12.07a1.44,1.44,0,0,1,1.4-1H9.87a45.93,45.93,0,0,1,6.13-.4,44.69,44.69,0,0,1,6.13.4H22a1.44,1.44,0,0,1,1.4,1v0.07a0.24,0.24,0,0,1,.07.2A21.7,21.7,0,0,1,23.73,16,32.41,32.41,0,0,1,23.47,19.67Z"/></svg>